<svg width="50" height="21" viewBox="0 0 62 21" fill="none" xmlns="http://www.w3.org/2000/svg">
    <path d="M25.3424 0.764648L22.2307 20.1281H27.2043L30.3141 0.764648H25.3424ZM40.3445 8.65225C38.6065 7.79396 37.541 7.21468 37.541 6.33684C37.5622 5.53869 38.442 4.72099 40.4066 4.72099C42.0224 4.6804 43.2101 5.06014 44.1111 5.43796L44.5624 5.63941L45.2386 1.58809C44.2562 1.20835 42.6986 0.789935 40.7746 0.789935C35.8631 0.789935 32.4046 3.34356 32.3832 6.99581C32.3426 9.69095 34.8592 11.1865 36.7426 12.0837C38.6666 13.0041 39.3215 13.6008 39.3215 14.4185C39.3003 15.6739 37.7658 16.2532 36.334 16.2532C34.3501 16.2532 33.2844 15.9548 31.6666 15.2553L31.0117 14.9569L30.3162 19.1672C31.4845 19.6866 33.6331 20.1437 35.8633 20.167C41.083 20.167 44.4794 17.6521 44.5221 13.7597C44.5391 11.6245 43.212 9.98909 40.3445 8.65225ZM57.9893 0.824573H54.1413C52.9556 0.824573 52.0546 1.16564 51.5412 2.38242L44.1534 20.1281H49.373L50.8106 16.2861H56.6503L57.3962 20.1437H61.9998L57.9893 0.824573ZM52.2582 12.4088C52.3589 12.4186 54.2616 6.13709 54.2616 6.13709L55.7767 12.4088C55.7767 12.4088 53.2405 12.4088 52.2582 12.4088ZM18.0749 0.764648L13.202 13.9204L12.6712 11.3259C11.7702 8.33244 8.94542 5.07948 5.79297 3.46362L10.2551 20.1088H15.5174L23.3372 0.766772H18.0749V0.764648Z"
          fill="#2394BC"/>
    <path d="M11.0322 3.26204C10.6524 1.78558 9.44141 0.789805 7.79665 0.768555H0.0794753L0 1.12683C6.01993 2.61093 11.0728 7.17757 12.712 11.4731L11.0322 3.26204Z"
          fill="#EFC75E"/>
</svg>
