<svg width="42" height="34" viewBox="0 0 42 34" fill="none" xmlns="http://www.w3.org/2000/svg">
<path d="M16.1807 13.0285C16.1807 17.068 18.0637 20.6674 20.9996 22.9978C23.9353 20.6673 25.8185 17.068 25.8185 13.0285C25.8185 8.98892 23.9354 5.38948 20.9996 3.05908C18.0638 5.38968 16.1807 8.98902 16.1807 13.0285Z" fill="#FF6300"/>
<path d="M13.0967 25.7509C20.1229 25.7509 25.8188 20.055 25.8188 13.0288C25.8188 6.00254 20.1229 0.306641 13.0967 0.306641C6.07041 0.306641 0.374512 6.00254 0.374512 13.0288C0.374512 20.055 6.07041 25.7509 13.0967 25.7509Z" fill="#EE0005"/>
<path d="M28.9028 25.7505C35.9291 25.7505 41.625 20.0546 41.625 13.0283C41.625 6.00205 35.9291 0.306152 28.9028 0.306152C21.8766 0.306152 16.1807 6.00205 16.1807 13.0283C16.1807 20.0546 21.8766 25.7505 28.9028 25.7505Z" fill="#F9A000"/>
<path d="M5.39722 29.5679C4.87034 29.5679 4.34347 29.858 4.02618 30.4756C3.81669 29.9396 3.38044 29.5679 2.83544 29.5679C2.227 29.5679 1.82709 29.9033 1.62762 30.258V29.9306C1.62762 29.7492 1.42815 29.6223 1.20053 29.6223C0.919496 29.6223 0.728027 29.7493 0.728027 29.9306V31.4436C1.03229 31.8808 1.35054 32.3079 1.682 32.724V31.357C1.682 30.7395 2.10003 30.4121 2.52722 30.4121C2.97243 30.4121 3.37137 30.7848 3.37137 31.348V33.6196C3.37137 33.8372 3.62628 33.9278 3.84387 33.9278C4.08972 33.9278 4.32544 33.8372 4.32544 33.6196V31.3389C4.32544 30.7486 4.75253 30.4031 5.17972 30.4031C5.59775 30.4031 6.02494 30.7305 6.02494 31.357V33.6105C6.02494 33.7647 6.2516 33.9278 6.49744 33.9278C6.76035 33.9278 6.97794 33.7646 6.97794 33.6105V31.357C6.97775 30.2126 6.21515 29.5679 5.39722 29.5679Z" fill="white"/>
<path d="M9.31252 29.5679C8.69502 29.5679 7.94043 29.8217 7.94043 30.1491C7.94043 30.3667 8.0593 30.6307 8.28596 30.6307C8.4673 30.6307 8.63149 30.3577 9.2943 30.3577C9.95711 30.3577 10.1939 30.8755 10.1939 31.3388V31.502H9.79399C8.5317 31.502 7.66846 31.7751 7.66846 32.8015C7.66846 33.6196 8.21346 34.0003 8.87627 34.0003C9.49377 34.0003 9.93002 33.6649 10.2484 33.2921V33.6104C10.2484 33.7827 10.4388 33.9277 10.6845 33.9277C10.9474 33.9277 11.148 33.7826 11.148 33.6104V31.3297C11.148 30.4211 10.6483 29.5679 9.31252 29.5679ZM10.194 32.3654C10.194 32.8015 9.67618 33.274 9.2219 33.274C8.88543 33.274 8.63158 33.0927 8.63158 32.6837C8.63158 32.1025 9.27627 32.0289 9.96637 32.0289H10.194V32.3654Z" fill="white"/>
<path d="M12.8196 30.8302C12.8196 30.6035 13.0191 30.3033 13.555 30.3033C14.0647 30.3033 14.3458 30.5672 14.5362 30.5672C14.7638 30.5672 14.8998 30.2398 14.8998 30.1038C14.8998 29.8127 14.2188 29.5679 13.5369 29.5679C12.3925 29.5679 11.9835 30.2489 11.9835 30.8755C11.9835 32.3835 14.1736 31.8204 14.1736 32.7743C14.1736 33.0191 14.0003 33.265 13.4009 33.265C12.6202 33.265 12.4288 32.8469 12.1931 32.8469C12.0018 32.8469 11.8657 33.1109 11.8657 33.274C11.8657 33.6196 12.5296 34.0004 13.4281 34.0004C14.4547 34.0004 15.0269 33.5097 15.0269 32.7381C15.0268 31.1032 12.8196 31.6301 12.8196 30.8302Z" fill="white"/>
<path d="M17.6888 33.1098H17.3705C16.898 33.1098 16.7348 32.9457 16.7348 32.5094V30.3295H17.843C18.0062 30.3295 18.1069 30.1572 18.1069 29.9749C18.1069 29.7936 18.0062 29.6213 17.843 29.6213H16.7348V27.9581C16.7348 27.7768 16.489 27.6499 16.2533 27.6499C16.0256 27.6499 15.7808 27.7769 15.7808 27.9581V32.5094C15.7808 33.4996 16.3348 33.9268 17.3704 33.9268H17.6887C17.9607 33.9268 18.0967 33.7273 18.0967 33.5178C18.0968 33.3093 17.9608 33.1098 17.6888 33.1098Z" fill="white"/>
<path d="M21.859 32.8831C21.6132 32.8831 21.3956 33.2286 20.7509 33.2286C20.0508 33.2286 19.5692 32.8468 19.5692 32.2384V32.0289H21.4862C21.8952 32.0289 22.3133 32.0017 22.3133 31.2482C22.3133 30.258 21.4771 29.5679 20.505 29.5679C19.4604 29.5679 18.6152 30.3758 18.6152 31.3297V32.1931C18.6152 33.274 19.4876 34.0003 20.7237 34.0003C21.6405 34.0003 22.2317 33.5823 22.2317 33.3102C22.2317 33.1471 22.0857 32.8831 21.859 32.8831ZM19.5692 31.1484C19.5692 30.6487 19.9963 30.2941 20.496 30.2941C21.0138 30.2941 21.4137 30.685 21.4137 31.1665C21.4137 31.3841 21.3412 31.4385 21.0772 31.4385H19.5692V31.1484Z" fill="white"/>
<path d="M25.4287 29.5679H25.1375C24.6016 29.5679 24.1754 29.9487 23.9841 30.3305V29.9306C23.9841 29.7492 23.7846 29.6223 23.5479 29.6223C23.2759 29.6223 23.0845 29.7493 23.0845 29.9306V33.6105C23.0845 33.7647 23.2758 33.9278 23.5479 33.9278C23.8209 33.9278 24.0385 33.7646 24.0385 33.6105V31.7479C24.0385 30.9208 24.5835 30.4121 25.1376 30.4121H25.4288C25.6192 30.4121 25.7924 30.2217 25.7924 29.985C25.7923 29.7583 25.6191 29.5679 25.4287 29.5679Z" fill="white"/>
<path d="M29.1259 32.8559C28.9173 32.8559 28.7722 33.1561 28.1719 33.1561C27.4727 33.1561 27.1636 32.7925 27.1636 32.1931V31.3751C27.1636 30.7757 27.4819 30.412 28.1628 30.412C28.7451 30.412 28.9083 30.6941 29.0987 30.6941C29.3263 30.6941 29.4805 30.412 29.4805 30.2307C29.4805 29.9123 28.9173 29.5679 28.0902 29.5679C26.7917 29.5679 26.2104 30.3577 26.2104 31.3751V32.1931C26.2104 33.2287 26.7917 34.0003 28.0993 34.0003C28.9355 34.0003 29.5348 33.6285 29.5348 33.3102C29.5349 33.1199 29.3808 32.8559 29.1259 32.8559Z" fill="white"/>
<path d="M31.5972 29.5679C30.9797 29.5679 30.2251 29.8217 30.2251 30.1491C30.2251 30.3667 30.344 30.6307 30.5706 30.6307C30.7529 30.6307 30.9162 30.3577 31.579 30.3577C32.2418 30.3577 32.4786 30.8755 32.4786 31.3388V31.502H32.0787C30.8164 31.502 29.9531 31.7751 29.9531 32.8015C29.9531 33.6196 30.4981 34.0003 31.1609 34.0003C31.7795 34.0003 32.2147 33.6649 32.533 33.2921V33.6104C32.533 33.7827 32.7234 33.9277 32.9692 33.9277C33.2321 33.9277 33.4326 33.7826 33.4326 33.6104V31.3297C33.4326 30.4211 32.9329 29.5679 31.5972 29.5679ZM32.4787 32.3654C32.4787 32.8015 31.9608 33.274 31.5066 33.274C31.1701 33.274 30.9163 33.0927 30.9163 32.6837C30.9163 32.1025 31.5609 32.0289 32.251 32.0289H32.4787V32.3654Z" fill="white"/>
<path d="M36.7474 29.5679H36.4573C35.9214 29.5679 35.4943 29.9487 35.3039 30.3305V29.9306C35.3039 29.7492 35.1035 29.6223 34.8677 29.6223C34.5947 29.6223 34.4043 29.7493 34.4043 29.9306V33.6105C34.4043 33.7647 34.5947 33.9278 34.8677 33.9278C35.1397 33.9278 35.3584 33.7646 35.3584 33.6105V31.7479C35.3584 30.9208 35.9034 30.4121 36.4574 30.4121H36.7475C36.9389 30.4121 37.1112 30.2217 37.1112 29.985C37.1112 29.7583 36.9389 29.5679 36.7474 29.5679Z" fill="white"/>
<path d="M40.7998 27.0601C40.5279 27.0601 40.3183 27.187 40.3183 27.3683V30.2575C40.1188 29.9029 39.7098 29.5674 39.1377 29.5674C38.2471 29.5674 37.5117 30.3753 37.5117 31.3564V32.1926C37.5117 33.1375 38.2562 33.9998 39.1105 33.9998C39.1528 33.9998 39.1941 33.9978 39.2354 33.9937C39.9688 33.1908 40.6497 32.3386 41.2724 31.4441V27.3684C41.2724 27.187 41.0729 27.0601 40.7998 27.0601ZM40.3184 32.4012C40.3184 32.6198 39.9104 33.1557 39.3825 33.1557C38.8828 33.1557 38.4658 32.6832 38.4658 32.1927V31.3565C38.4658 30.884 38.8828 30.4116 39.3926 30.4116C39.8459 30.4116 40.3184 30.7662 40.3184 31.3565V32.4012Z" fill="white"/>
</svg>
